Coordinates
version=1
nRows=21
nColumns=33
inDegrees=yes

Units are S.I. units (second, meters, Newtons, ...)
Angles are in degrees.

endheader
time	ground_thorax_rot_x	ground_thorax_rot_y	ground_thorax_rot_z	ground_thorax_tx	ground_thorax_ty	ground_thorax_tz	clav_prot_r	clav_elev_r	scapula_abduction_r	scapula_elevation_r	scapula_upward_rot_r	scapula_winging_r	shoulder_elv_r	plane_of_elev_r	axial_rot_r	elbow_flexion_r	pro_sup_r	wrist_flex_r	wrist_dev_r	clav_prot_l	clav_elev_l	scapula_abduction_l	scapula_elevation_l	scapula_upward_rot_l	scapula_winging_l	shoulder_elv_l	plane_of_elev_l	axial_rot_l	elbow_flexion_l	pro_sup_l	wrist_flex_l	wrist_dev_l
     10.25000000	    -36.87448152	     -5.64954266	      9.12526542	    -66.93620556	    768.41606258	     10.35611158	      0.26131894	    -45.00000000	     45.00000000	    -45.00000000	     -1.67520414	  -1534.69544814	  -2639.12062989	    151.67050665	   -112.44823466	   1089.10277870	     26.92225224	     17.39445660	     11.30745203	     17.42769256	     37.75897592	    -45.00000000	    -36.34559859	    -25.39531211	   2238.92327730	  -4254.15443476	     25.19373087	    -31.40306435	    726.75883627	     29.35922077	      7.96999428	    -18.06115597
     10.26000000	    -37.00925939	     -5.36118671	      8.95336877	    -67.56815479	    768.41698788	     10.37388466	      0.53510363	    -45.00000000	     45.00000000	    -45.00000000	     -1.40850927	  -1535.37495215	  -2639.60394743	    151.21057766	   -112.74803951	   1088.84050852	     27.04741543	     17.14366111	     10.98336506	     17.36185847	     37.62150107	    -45.00000000	    -36.61502879	    -25.75429865	   2238.67788138	  -4253.90885921	     25.43381776	    -31.71677033	    726.86132155	     29.42612308	      8.23210131	    -18.21720165
     10.27000000	    -36.95525672	     -5.58071363	      9.16513321	    -68.25304286	    768.42063380	     10.36897694	      0.43937184	    -45.00000000	     45.00000000	    -45.00000000	     -1.73123548	  -1535.12148417	  -2639.27970798	    151.46044373	   -112.65163708	   1089.07313568	     27.22536564	     17.32974774	     11.10736092	     17.45262897	     37.70213063	    -45.00000000	    -36.61292220	    -25.76333387	   2238.89093189	  -4254.04274040	     25.30382530	    -31.46015522	    727.00575118	     29.37222110	      8.06971482	    -18.19089329
     10.28000000	    -36.96027113	     -5.48456943	      9.13046874	    -68.99197887	    768.42945637	     10.34345352	      0.44354669	    -45.00000000	     45.00000000	    -45.00000000	     -1.70591114	  -1535.24736641	  -2639.26178317	    151.35375336	   -112.67522294	   1089.08847754	     27.34727686	     17.37780257	     11.13394604	     17.44359776	     37.84786790	    -45.00000000	    -36.66642378	    -25.82145199	   2238.93127492	  -4254.04583212	     25.38600858	    -31.38715827	    727.00167912	     29.36524311	      8.06726612	    -18.21667152
     10.29000000	    -36.98232052	     -5.51293309	      9.19409948	    -69.78125786	    768.44596073	     10.29931949	      0.41119985	    -45.00000000	     45.00000000	    -45.00000000	     -1.75830975	  -1535.23299064	  -2639.19736775	    151.44961303	   -112.67451448	   1089.11421717	     27.45967056	     17.38845791	     11.07707387	     17.48619080	     37.85677090	    -45.00000000	    -36.78925996	    -25.91383922	   2238.93948939	  -4254.03775519	     25.31787417	    -31.29332978	    727.08144353	     29.35351431	      8.07570710	    -18.24704418
     10.30000000	    -36.99946807	     -5.43791452	      9.21955704	    -70.62050456	    768.47353158	     10.23846913	      0.46486800	    -45.00000000	     45.00000000	    -45.00000000	     -1.82572230	  -1535.40233646	  -2639.20375499	    151.31767966	   -112.68081975	   1089.10548821	     27.56764403	     17.43177593	     11.11703718	     17.51875560	     37.97146385	    -45.00000000	    -36.86086131	    -26.08443204	   2239.00430894	  -4254.01210459	     25.45157145	    -31.20200517	    727.10359358	     29.34219063	      8.06163865	    -18.27271638
     10.31000000	    -37.00555888	     -5.46735196	      9.32199983	    -71.50794474	    768.51592742	     10.16233253	      0.43293373	    -45.00000000	     45.00000000	    -45.00000000	     -1.91086245	  -1535.37967963	  -2639.06429808	    151.41248527	   -112.67602004	   1089.17314400	     27.65894359	     17.45372754	     11.04748956	     17.53714498	     37.91815481	    -45.00000000	    -36.90082188	    -26.15910099	   2239.07195323	  -4253.96257825	     25.34993843	    -31.08587732	    727.18490315	     29.33648684	      8.08229291	    -18.31810691
     10.32000000	    -37.01248115	     -5.38673915	      9.33057191	    -72.44094348	    768.57733918	     10.07200548	      0.49853476	    -45.00000000	     45.00000000	    -45.00000000	     -1.95620022	  -1535.58264391	  -2639.08296035	    151.25179873	   -112.69641536	   1089.16460192	     27.75066020	     17.49410329	     11.09065155	     17.52853420	     37.95198670	    -45.00000000	    -36.94449827	    -26.27209266	   2239.19834758	  -4253.93056871	     25.50831443	    -31.05793102	    727.24347958	     29.34287449	      8.06567515	    -18.35327884
     10.33000000	    -37.00074770	     -5.42421909	      9.43488555	    -73.42105715	    768.66245919	      9.96752843	      0.44650388	    -45.00000000	     45.00000000	    -45.00000000	     -2.05992693	  -1535.52245414	  -2638.89897496	    151.36756566	   -112.66789049	   1089.23847264	     27.83241182	     17.52040248	     11.01442691	     17.53096760	     37.95686459	    -45.00000000	    -36.99486021	    -26.32904351	   2239.26530556	  -4253.88397351	     25.36657649	    -30.97369105	    727.32184245	     29.35409069	      8.07466024	    -18.40458566
     10.34000000	    -37.05743854	     -5.30004233	      9.43012663	    -74.44502142	    768.77641017	      9.84905982	      0.52752679	    -45.00000000	     45.00000000	    -45.00000000	     -2.07906366	  -1535.77291314	  -2638.97338459	    151.18896212	   -112.69110113	   1089.19791847	     27.91819140	     17.54743003	     11.05437263	     17.55906822	     38.04433285	    -45.00000000	    -37.15172982	    -26.52566665	   2239.36690190	  -4253.88252289	     25.56337615	    -30.93291411	    727.37873611	     29.36865637	      8.05119918	    -18.43741393
     10.35000000	    -37.04614752	     -5.36273174	      9.56849586	    -75.51249837	    768.92481189	      9.71638822	      0.45550698	    -45.00000000	     45.00000000	    -45.00000000	     -2.23479516	  -1535.67356540	  -2638.72668437	    151.32344364	   -112.62321103	   1089.31698512	     27.99234603	     17.59105267	     10.97165740	     17.57457626	     38.04108395	    -45.00000000	    -37.17059925	    -26.58613464	   2239.44149598	  -4253.80074559	     25.38641793	    -30.77936367	    727.46607161	     29.37649717	      8.05942479	    -18.50067496
     10.36000000	    -37.06410097	     -5.22687004	      9.56831695	    -76.62399501	    769.11374472	      9.56970024	      0.56541915	    -45.00000000	     45.00000000	    -45.00000000	     -2.22822837	  -1535.96362192	  -2638.76613570	    151.10055333	   -112.64218875	   1089.24594304	     28.07353492	     17.60558964	     11.00267494	     17.55719623	     37.97906584	    -45.00000000	    -37.24371800	    -26.75463590	   2239.60690320	  -4253.77928907	     25.59707242	    -30.80270617	    727.50772628	     29.40535419	      8.06123716	    -18.54168370
     10.37000000	    -37.24942257	     -5.31978854	      9.73925150	    -77.77881507	    769.34822988	      9.40990883	      0.55227258	    -45.00000000	     45.00000000	    -45.00000000	     -2.50551780	  -1535.90465938	  -2638.74911908	    151.31874648	   -112.61659124	   1089.45238750	     28.13800937	     17.66334852	     10.91383709	     17.58264385	     38.07061490	    -45.00000000	    -37.69957934	    -26.98661617	   2239.55512817	  -4253.81168237	     25.43921274	    -30.69694419	    727.67613268	     29.40584441	      8.04043135	    -18.60954493
     10.38000000	    -37.19286837	     -5.18740774	      9.77462920	    -78.98723692	    769.63513062	      9.23689362	      0.58734786	    -45.00000000	     45.00000000	    -45.00000000	     -2.54724910	  -1536.05812636	  -2638.58668004	    151.11250210	   -112.58740672	   1089.38220042	     28.21370300	     17.70372695	     10.94114687	     17.67419766	     38.13915716	    -45.00000000	    -37.64299767	    -27.13772721	   2239.72083651	  -4253.70684732	     25.62512510	    -30.49612244	    727.60097363	     29.39156958	      8.02767764	    -18.63427277
     10.39000000	    -37.35562984	     -5.25895256	      9.95059585	    -80.24534901	    769.97737375	      9.05285836	      0.64180322	    -45.00000000	     45.00000000	    -45.00000000	     -2.72952526	  -1536.13797594	  -2638.62779941	    151.24582591	   -112.59558133	   1089.54623903	     28.25949493	     17.73454950	     10.84097770	     17.70432941	     38.32810734	    -45.00000000	    -38.18080273	    -27.55292543	   2239.64034863	  -4253.76715303	     25.51795894	    -30.35675287	    727.92315264	     29.33901670	      8.00031703	    -18.72281959
     10.40000000	    -37.42026994	     -5.20199194	     10.04315720	    -81.56319385	    770.37940659	      8.85821722	      0.67576204	    -45.00000000	     45.00000000	    -45.00000000	     -2.83971460	  -1536.29409999	  -2638.53069794	    151.18826618	   -112.60086026	   1089.64043177	     28.29612096	     17.80031410	     10.81200972	     17.79667632	     38.33559419	    -45.00000000	    -38.32175522	    -27.76684006	   2239.79148389	  -4253.66819586	     25.61468149	    -30.07089995	    728.01243597	     29.26208395	      7.99595734	    -18.79298849
     10.41000000	    -37.35885671	     -5.05106183	     10.01600320	    -82.94020984	    770.84184820	      8.65498852	      0.67499957	    -45.00000000	     45.00000000	    -45.00000000	     -2.85969954	  -1536.35344642	  -2638.27865140	    151.02351044	   -112.55697317	   1089.59251255	     28.33262072	     17.82551724	     10.79042177	     17.76852731	     38.27806870	    -45.00000000	    -38.26125425	    -27.77866410	   2239.93509230	  -4253.56461712	     25.69045584	    -29.97244648	    727.92319478	     29.21220069	      8.03279389	    -18.83152843
     10.42000000	    -37.52480767	     -5.07840465	     10.18568129	    -84.38621968	    771.36691379	      8.44369813	      0.73170963	    -45.00000000	     45.00000000	    -45.00000000	     -2.94935556	  -1536.52454150	  -2638.35097650	    151.15186580	   -112.56857488	   1089.79766775	     28.32505540	     17.88503978	     10.72254216	     17.78370350	     38.51804114	    -45.00000000	    -38.75629202	    -28.14031991	   2239.95829000	  -4253.61007929	     25.61665799	    -29.96480467	    728.25026445	     29.08813842	      7.96583045	    -18.91291203
     10.43000000	    -37.61812795	     -5.34763935	     10.71622874	    -85.89389802	    771.94894401	      8.22726421	      0.99893384	    -45.00000000	     45.00000000	    -45.00000000	     -3.70698712	  -1536.73423756	  -2638.29590773	    151.07637728	   -112.71100214	   1089.80050709	     28.28015583	     17.88553407	     10.65746307	     18.40203293	     39.53180422	    -45.00000000	    -39.40968211	    -29.73808649	   2239.59578721	  -4253.35428444	     25.84424222	    -29.14130921	    728.30873540	     28.76443496	      7.80970008	    -18.85549962
     10.44000000	    -37.66564193	     -5.21070284	     10.74531089	    -87.46747404	    772.58933579	      8.00639209	      1.00669866	    -45.00000000	     45.00000000	    -45.00000000	     -3.65875107	  -1536.89044569	  -2638.17956246	    151.10321936	   -112.79409018	   1089.85729308	     28.22972395	     17.91915567	     10.60901288	     18.18907750	     39.54492278	    -45.00000000	    -39.57061392	    -29.86995002	   2239.68711802	  -4253.25901374	     25.84350640	    -28.98495577	    728.45582751	     28.58833302	      7.85624946	    -18.95277223
     10.45000000	    -37.73237560	     -5.11049638	     10.86261647	    -89.11388379	    773.28628650	      7.78141015	      1.04890438	    -45.00000000	     45.00000000	    -45.00000000	     -3.75182242	  -1537.02736110	  -2638.06369750	    151.06904218	   -112.82906719	   1089.92023266	     28.16673805	     17.96201534	     10.57537636	     18.20046540	     39.65373674	    -45.00000000	    -39.83973026	    -30.07204803	   2239.76486464	  -4253.20229628	     25.87685315	    -28.93713421	    728.57862625	     28.40217212	      7.82758948	    -19.01520148
